# xmcd
#
# Track frame offsets: 
#        150
#        19381
#        42816
#        67304
#        91184
#        115228
#        133497
#        157590
#        174907
#        199289
#        223330
#        244744
#
# Disc length: 3558 seconds
#
# Revision: 0
# Processed by: cddbd v1.5.1PL0 Copyright (c) Steve Scherf et al.
# Submitted via: ExactAudioCopy v0.90b4
#
DISCID=ae0de40c
DTITLE=Vicci Martinez - On My Way
DYEAR=2005
DGENRE=Blues
TTITLE0=Mae Flower
TTITLE1=On My Way
TTITLE2=Fire In Her Eyes
TTITLE3=Nature Of Love
TTITLE4=Little Star
TTITLE5=Sunshine
TTITLE6=Given
TTITLE7=In Dreams
TTITLE8=Ode To You
TTITLE9=Everything
TTITLE10=Where I Go
TTITLE11=Sweet Dream
EXTD=
EXTT0=
EXTT1=
EXTT2=
EXTT3=
EXTT4=
EXTT5=
EXTT6=
EXTT7=
EXTT8=
EXTT9=
EXTT10=
EXTT11=
PLAYORDER=
